<?xml version="1.0" standalone="no"?>
<!DOCTYPE svg PUBLIC "-//W3C//DTD SVG 20010904//EN"
 "http://www.w3.org/TR/2001/REC-SVG-20010904/DTD/svg10.dtd">
<svg version="1.0" xmlns="http://www.w3.org/2000/svg"
 width="260.000000pt" height="260.000000pt" viewBox="0 0 260.000000 260.000000"
 preserveAspectRatio="xMidYMid meet">
<metadata>
Created by potrace 1.11, written by Peter Selinger 2001-2013
</metadata>
<g transform="translate(0.000000,260.000000) scale(0.100000,-0.100000)"
fill="#000000" stroke="none">
<path d="M1198 2425 c-1 -1 -28 -6 -59 -9 -31 -4 -67 -9 -80 -12 -13 -3 -35
-7 -49 -10 -206 -40 -436 -158 -584 -302 -137 -132 -264 -372 -292 -551 -3
-20 -10 -56 -14 -81 -10 -50 -7 -390 3 -430 4 -14 9 -34 11 -45 2 -11 9 -32
15 -47 6 -16 9 -28 7 -28 -4 0 24 -69 60 -147 10 -24 22 -43 26 -43 5 0 8 -5
8 -10 0 -14 48 -87 82 -124 15 -16 24 -34 21 -39 -3 -6 -2 -7 4 -4 5 3 28 -14
51 -38 23 -25 47 -45 53 -45 6 0 9 -7 6 -14 -4 -10 -1 -13 7 -10 8 3 16 -4 19
-15 3 -14 10 -19 21 -15 11 4 16 1 16 -11 0 -9 5 -13 10 -10 6 3 25 -4 43 -17
17 -13 36 -23 42 -23 5 0 15 -11 21 -24 11 -21 13 -22 17 -5 4 18 5 18 6 1 0
-10 6 -15 11 -12 6 3 10 1 10 -4 0 -6 9 -11 20 -11 11 0 20 -6 20 -12 0 -9 4
-8 10 2 7 11 10 11 10 2 0 -7 5 -10 10 -7 6 3 10 -2 10 -12 0 -15 2 -16 10 -3
8 12 10 12 10 -5 0 -17 2 -17 10 -5 9 14 11 13 14 -9 2 -17 14 -22 22 -10 5 8
3 10 -7 4 -12 -7 -12 -5 -1 6 11 12 14 12 22 -1 5 -8 24 -15 42 -16 51 -3 51
-3 40 -17 -8 -10 -6 -13 8 -13 10 0 17 3 15 6 -2 4 2 7 10 7 17 0 19 -8 5 -25
-7 -9 -7 -9 2 -2 7 6 19 5 32 -1 19 -9 20 -9 4 4 -10 8 -18 18 -18 22 0 4 7 2
15 -5 8 -6 19 -9 24 -5 7 4 8 -1 4 -12 -6 -16 -5 -17 12 -3 11 9 16 10 11 3
-5 -9 -1 -13 11 -13 11 0 23 -3 29 -8 5 -4 0 2 -11 12 -20 19 -20 19 0 11 11
-4 30 -8 41 -8 15 -1 20 -6 16 -16 -3 -9 -2 -13 3 -9 4 4 15 2 23 -5 13 -10
14 -9 3 10 -10 19 -9 22 4 17 8 -4 15 -11 15 -16 0 -6 8 -4 17 3 15 12 16 12
10 -3 -4 -12 -2 -15 8 -11 8 3 12 9 9 14 -3 5 10 0 28 -10 28 -17 36 -18 50
-7 10 7 17 15 15 17 -1 3 6 -4 16 -14 9 -11 17 -14 17 -8 0 7 4 10 9 6 6 -3
14 2 19 11 8 15 10 14 16 -2 6 -15 9 -16 16 -4 5 7 16 15 24 16 9 1 14 -2 10
-7 -3 -5 -10 -7 -15 -4 -5 4 -9 2 -9 -4 0 -13 53 -7 58 8 2 7 10 5 20 -7 10
-10 13 -12 8 -5 -9 14 -9 14 46 18 21 1 35 -1 33 -5 -3 -4 2 -10 10 -14 8 -3
17 -1 20 5 4 5 11 6 17 3 8 -5 9 -1 5 10 -4 10 -3 15 3 11 6 -3 10 0 10 7 0
10 2 10 9 -1 5 -8 11 -9 15 -3 3 5 16 8 28 8 13 -1 32 2 43 8 18 8 19 8 6 -8
-12 -14 -12 -16 3 -10 9 3 16 11 16 18 0 6 5 4 10 -4 8 -13 10 -12 10 3 0 9
-5 17 -12 17 -6 0 -8 3 -5 7 4 3 16 -3 27 -15 25 -27 34 -28 21 -3 -9 16 -8
18 9 14 11 -3 20 -10 20 -17 0 -6 5 -3 11 7 6 9 15 14 21 11 7 -5 8 -2 4 5 -5
8 -3 12 5 10 25 -3 39 1 39 11 0 5 -8 7 -17 4 -15 -5 -16 -4 -3 5 11 8 17 7
24 -3 8 -12 12 -12 23 2 12 15 12 15 7 -3 -7 -19 -6 -20 8 -1 8 11 20 16 27
12 7 -5 10 -2 9 6 -2 7 4 12 12 10 12 -2 12 0 -2 11 -15 12 -15 14 5 27 20 12
21 11 9 -2 -10 -13 -10 -17 3 -22 9 -3 13 -2 10 4 -10 16 30 31 46 17 7 -7 5
-1 -6 12 l-20 24 24 -13 c19 -10 22 -10 16 1 -6 9 -2 11 14 6 22 -5 22 -5 4
15 -18 21 -18 21 7 8 23 -12 24 -12 11 4 -8 9 -11 19 -7 23 3 3 6 2 6 -4 0 -5
7 -10 15 -10 16 0 28 24 20 38 -4 5 1 6 9 3 9 -3 13 -11 9 -17 -3 -5 -1 -7 5
-3 6 3 8 18 6 32 -4 24 -3 25 11 10 9 -9 19 -16 23 -16 3 0 1 5 -6 12 -18 18
-14 27 11 21 22 -5 22 -5 2 11 -14 11 -15 15 -5 14 9 -2 14 4 14 13 -1 12 6
16 27 15 23 -2 26 1 19 15 -6 11 -4 23 5 35 13 17 16 17 25 4 6 -9 10 -10 10
-3 0 6 -4 14 -10 18 -11 7 -2 35 12 35 7 0 6 -5 -1 -13 -8 -10 -7 -14 2 -14
16 0 19 27 5 44 -7 8 -3 10 14 6 23 -5 23 -5 3 10 -19 16 -19 16 5 10 23 -6
24 -5 10 12 -12 15 -12 17 -1 10 11 -6 13 -4 8 11 -7 18 -7 18 8 0 8 -11 15
-15 15 -9 0 7 -8 19 -17 29 -17 17 -17 17 3 12 13 -3 21 -1 21 8 0 7 -3 11 -7
9 -4 -2 -7 2 -7 9 0 9 7 12 16 8 14 -5 14 -4 1 13 -14 17 -13 18 4 12 14 -6
16 -4 9 5 -8 12 -10 30 -3 43 1 3 4 10 5 15 1 6 4 13 5 18 1 4 2 10 1 14 0 4
6 5 15 1 8 -3 14 -2 13 3 -1 5 0 11 1 14 7 19 7 40 -1 40 -6 0 -9 -7 -7 -16 2
-10 -3 -18 -10 -20 -7 -1 -8 0 -3 2 6 3 7 12 4 20 -3 8 4 17 18 23 21 9 22 10
4 11 -15 0 -17 2 -6 9 9 6 10 11 2 15 -7 5 -8 14 -2 24 4 9 7 27 6 39 -1 12 2
20 7 17 5 -3 7 6 4 20 -3 14 0 28 5 31 5 4 9 11 9 16 0 6 -6 7 -12 3 -9 -5 -9
-2 1 9 9 11 10 17 2 17 -6 0 -11 9 -11 20 0 18 -7 20 -64 20 l-64 0 -11 -72
c-6 -40 -13 -84 -16 -98 -3 -14 -7 -36 -10 -49 -58 -290 -247 -508 -503 -582
-56 -16 -190 -34 -227 -31 -108 10 -145 17 -186 38 -31 16 -114 84 -102 84 4
0 3 4 -2 8 -23 15 -58 75 -57 98 0 13 -4 21 -9 18 -8 -5 -14 17 -10 39 0 4 -4
7 -10 7 -7 0 -9 10 -7 25 3 13 1 22 -4 19 -5 -3 -7 6 -4 20 3 15 1 24 -5 21
-5 -4 -9 0 -10 7 -1 17 -5 40 -14 69 -5 19 -4 21 4 9 7 -9 11 -10 11 -3 0 6
-4 15 -10 18 -5 3 -10 16 -10 29 0 12 -6 28 -12 35 -11 11 -10 13 3 8 9 -3 16
0 16 9 0 8 -5 14 -11 14 -6 0 -12 19 -13 42 -1 26 1 37 6 29 6 -9 8 -3 8 17
-1 17 -5 28 -10 25 -4 -2 -4 -9 -1 -15 4 -7 2 -8 -4 -4 -8 5 -8 15 -2 32 7 17
7 23 0 19 -6 -3 -10 -1 -10 4 0 6 8 11 18 11 16 1 16 1 0 11 -10 5 -18 15 -18
20 0 6 4 8 9 4 5 -3 13 0 17 6 4 7 3 9 -3 6 -6 -4 -14 0 -17 9 -9 22 -8 26 6
18 7 -5 8 -3 3 6 -4 7 -2 15 5 20 8 5 7 9 -5 13 -9 4 -13 3 -10 -3 3 -6 1 -10
-5 -10 -7 0 -9 7 -6 16 3 9 6 18 6 20 0 3 3 3 8 1 4 -3 7 5 7 18 0 18 -3 21
-12 13 -16 -13 -17 4 -1 20 9 9 9 12 -1 12 -7 0 -10 4 -6 10 3 5 13 6 22 3 15
-6 16 -5 3 9 -8 9 -19 14 -24 11 -4 -3 0 7 10 23 18 28 18 29 0 14 -18 -14
-19 -14 -8 6 8 16 8 24 -1 34 -10 10 -8 12 6 7 11 -4 16 -3 12 3 -3 5 -1 20 5
32 10 21 10 21 -9 -2 -17 -22 -19 -22 -16 -5 2 11 4 20 5 20 7 0 5 47 -2 51
-5 3 -1 15 9 27 10 11 12 17 6 13 -7 -4 -13 -2 -13 4 0 6 7 13 15 16 8 4 12
11 9 16 -4 6 -10 5 -15 -3 -6 -10 -9 -7 -9 10 0 18 4 22 17 17 14 -6 14 -3 -3
15 -10 12 -13 19 -6 15 7 -4 12 -1 12 9 0 9 -4 13 -10 10 -5 -3 -10 -1 -10 4
0 6 8 11 18 11 13 0 14 2 3 9 -11 7 -11 9 0 14 10 4 10 6 2 6 -7 1 -13 9 -13
19 0 14 2 15 10 2 8 -12 10 -10 10 8 0 13 -4 21 -9 18 -5 -4 -7 3 -4 14 3 11
9 20 15 20 5 0 4 10 -3 21 -7 13 -7 19 -1 15 7 -4 9 9 7 36 -3 28 -1 38 5 28
11 -18 20 -10 26 26 3 21 2 25 -5 14 -5 -8 -7 -18 -4 -24 3 -5 1 -6 -5 -2 -14
8 -5 34 22 65 19 22 19 24 2 17 -17 -6 -17 -5 -5 10 8 10 13 19 12 21 -8 9 -1
22 14 27 16 6 16 6 0 -12 -9 -10 -14 -22 -10 -25 8 -9 31 35 25 50 -2 7 -9 10
-16 6 -6 -3 -3 3 7 14 9 11 14 23 10 27 -4 4 0 4 9 1 24 -10 42 3 28 20 -8 9
-6 14 5 19 9 3 13 11 9 17 -4 8 -3 9 5 5 8 -5 9 -12 2 -20 -7 -8 -6 -17 1 -26
8 -12 9 -12 4 3 -3 9 -1 17 5 17 7 0 9 11 5 28 -3 15 -3 21 0 15 8 -19 27 -16
20 2 -5 13 -2 14 15 4 17 -9 20 -8 14 2 -6 9 -3 11 8 6 9 -3 23 0 31 9 8 8 19
14 23 13 22 -4 35 2 30 14 -3 8 1 14 9 14 7 0 11 -4 9 -8 -3 -4 2 -9 10 -13 8
-3 17 -1 20 4 4 7 13 6 25 0 15 -8 18 -7 14 3 -3 8 2 14 10 14 8 0 13 -4 11
-8 -3 -4 2 -9 10 -12 10 -4 12 -1 8 10 -4 10 -2 14 4 10 6 -4 14 -1 16 5 4 10
6 10 6 0 1 -7 5 -10 11 -7 5 3 7 0 4 -8 -3 -8 1 -14 10 -14 8 0 13 4 11 8 -3
4 6 6 19 5 13 0 22 -4 20 -7 -2 -4 3 -10 12 -13 8 -3 12 -2 9 4 -3 6 -1 10 4
10 6 0 11 -4 11 -9 0 -4 12 -7 26 -5 15 1 28 -4 31 -13 4 -10 8 -11 13 -3 5 8
10 2 14 -15 7 -26 8 -26 20 -9 13 17 14 17 25 -4 7 -14 17 -19 28 -15 9 4 14
2 10 -3 -3 -6 4 -16 16 -24 20 -12 21 -12 8 3 -18 22 -9 21 17 -2 12 -10 18
-22 14 -26 -4 -5 1 -5 11 -2 11 4 20 1 23 -8 4 -8 10 -12 15 -9 5 3 9 1 9 -5
0 -5 -6 -12 -12 -15 -7 -2 -2 -4 12 -3 19 2 25 -3 24 -16 -1 -10 0 -16 3 -13
3 3 14 1 25 -5 11 -6 17 -13 14 -16 -3 -3 6 -15 20 -25 14 -11 23 -22 21 -24
-2 -3 11 -21 29 -41 19 -20 34 -43 34 -50 0 -7 5 -13 11 -13 5 0 8 -4 5 -9 -3
-4 3 -16 14 -26 11 -10 20 -26 20 -35 0 -9 4 -20 10 -26 12 -12 71 -154 63
-154 -3 0 -1 -6 5 -12 5 -7 13 -29 18 -48 4 -19 9 -37 10 -40 0 -3 5 -20 9
-39 5 -20 16 -36 27 -38 17 -5 22 -16 19 -36 -1 -5 3 -6 9 -2 6 3 8 11 5 16
-4 5 5 8 18 7 31 -3 88 22 81 34 -4 6 -9 6 -14 -2 -4 -7 -7 13 -5 44 1 31 4
59 8 62 3 3 1 18 -4 32 -7 18 -7 28 0 30 6 2 8 9 4 15 -9 15 -10 77 -1 83 4 3
3 17 -3 32 -7 18 -7 28 0 30 6 2 8 9 4 15 -9 15 -10 77 -1 83 4 3 3 17 -3 32
-7 18 -7 28 0 30 6 2 8 9 4 15 -9 15 -10 77 -1 83 4 3 3 17 -3 32 -7 18 -7 28
0 30 6 2 8 9 4 15 -9 15 -10 77 -1 83 4 3 3 17 -3 32 -7 18 -7 28 0 30 6 2 8
9 4 14 -10 17 -12 68 -2 68 5 0 5 7 2 17 -5 12 -3 14 7 8 9 -5 11 -4 6 4 -4 6
-11 9 -16 6 -4 -3 -11 2 -14 11 -4 10 -2 13 7 8 8 -5 7 -2 -2 9 -9 12 -28 17
-62 17 l-49 0 -85 -130 c-47 -71 -90 -132 -96 -136 -6 -3 -23 5 -37 18 -43 40
-133 103 -193 136 -58 32 -189 85 -189 76 0 -2 -13 2 -30 11 -16 9 -30 14 -30
11 0 -3 -54 7 -105 21 -21 6 -401 14 -407 8z m338 -187 c4 -7 4 -10 -1 -6 -4
4 -14 3 -22 -4 -11 -8 -12 -7 -7 6 7 19 20 21 30 4z m-87 -21 c0 -9 -2 -8 -6
1 -2 6 -10 9 -15 6 -7 -4 -8 -2 -4 5 9 13 26 5 25 -12z m-45 -12 c-4 -8 -8
-15 -10 -15 -2 0 -4 7 -4 15 0 8 4 15 10 15 5 0 7 -7 4 -15z m603 -1932 c-10
-9 -56 -10 -51 -1 3 5 12 7 20 4 8 -3 14 -1 14 5 0 6 5 7 11 4 6 -4 8 -9 6
-12z m-134 -54 c-8 -8 -13 -7 -18 2 -5 8 -4 10 3 5 7 -4 12 -2 12 5 0 7 3 9 7
6 4 -4 2 -12 -4 -18z m-249 -54 c-4 -8 -8 -15 -10 -15 -2 0 -4 7 -4 15 0 8 4
15 10 15 5 0 7 -7 4 -15z m-327 -10 c1 -11 -17 -8 -30 4 -4 4 0 7 10 6 10 0
19 -5 20 -10z m77 7 c3 -5 -1 -9 -9 -9 -8 0 -12 4 -9 9 3 4 7 8 9 8 2 0 6 -4
9 -8z"/>
<path d="M1757 2183 c3 -7 6 -13 8 -13 2 0 5 6 8 13 3 8 -1 14 -8 14 -7 0 -11
-6 -8 -14z"/>
<path d="M1261 2071 c-8 -5 -9 -11 -3 -15 5 -3 12 1 16 9 6 17 6 18 -13 6z"/>
<path d="M1185 1849 c-4 -6 -4 -13 -1 -16 3 -4 6 -1 6 6 0 7 5 9 12 5 7 -4 8
-3 4 4 -9 15 -13 15 -21 1z"/>
<path d="M1150 1520 c-9 -6 -10 -10 -3 -10 6 0 15 5 18 10 8 12 4 12 -15 0z"/>
<path d="M2460 1400 c-9 -6 -10 -10 -3 -10 6 0 15 5 18 10 8 12 4 12 -15 0z"/>
<path d="M2503 1085 c0 -8 4 -12 9 -9 5 3 6 10 3 15 -9 13 -12 11 -12 -6z"/>
<path d="M2495 1030 c-3 -5 -4 -10 0 -10 3 0 1 -8 -4 -18 -7 -13 -6 -19 2 -19
7 0 12 13 12 29 1 31 -1 33 -10 18z"/>
<path d="M2456 852 c-3 -5 1 -9 9 -9 8 0 12 4 9 9 -3 4 -7 8 -9 8 -2 0 -6 -4
-9 -8z"/>
<path d="M2447 824 c-8 -8 3 -34 15 -34 6 0 6 6 -1 14 -9 11 -9 15 1 19 7 3 8
6 2 6 -6 1 -13 -2 -17 -5z"/>
<path d="M2317 547 c-3 -8 1 -14 8 -14 7 0 11 6 8 14 -3 7 -6 13 -8 13 -2 0
-5 -6 -8 -13z"/>
<path d="M2276 485 c-3 -8 -1 -15 4 -15 6 0 10 7 10 15 0 8 -2 15 -4 15 -2 0
-6 -7 -10 -15z"/>
<path d="M621 324 c0 -11 3 -14 6 -6 3 7 2 16 -1 19 -3 4 -6 -2 -5 -13z"/>
<path d="M896 208 c3 -5 10 -6 15 -3 13 9 11 12 -6 12 -8 0 -12 -4 -9 -9z"/>
<path d="M1686 163 c-6 -14 -5 -15 5 -6 7 7 10 15 7 18 -3 3 -9 -2 -12 -12z"/>
<path d="M1710 176 c0 -2 7 -7 16 -10 8 -3 12 -2 9 4 -6 10 -25 14 -25 6z"/>
<path d="M1538 142 c2 -7 8 -9 11 -4 3 5 13 12 21 15 8 3 3 5 -11 4 -18 -1
-25 -6 -21 -15z"/>
</g>
</svg>
