<svg id="Layer_1" data-name="Layer 1" xmlns="http://www.w3.org/2000/svg" viewBox="0 0 988.73 404.49"><defs><style>.cls-1{fill:#fff;}</style></defs><path class="cls-1" d="M806.37,345.23l-26.53,45.95a13.64,13.64,0,0,1-23.62,0l-26.53-45.95-26.54-46A13.64,13.64,0,0,1,715,278.81H821.1a13.64,13.64,0,0,1,11.81,20.46Zm26.16-74.87a14,14,0,0,0,0-14L768,144.55,703.4,32.73a14,14,0,0,0-24.21,0L614.62,144.55,550.06,256.38a14,14,0,0,0,12.1,21H820.42A14,14,0,0,0,832.53,270.36Zm52.84,75-26.53-46a13.64,13.64,0,0,0-23.62,0l-26.54,46-26.53,46A13.64,13.64,0,0,0,794,411.81H900.1a13.65,13.65,0,0,0,11.81-20.46ZM601.14,164.47A13.64,13.64,0,0,0,589.33,144H483.2a13.64,13.64,0,0,0-11.81,20.46l26.53,46,26.53,46a13.65,13.65,0,0,0,23.63,0l26.53-46Zm-104.7,46.47L469.9,165a13.64,13.64,0,0,0-23.62,0l-26.53,46-26.54,45.95A13.64,13.64,0,0,0,405,277.35H511.16A13.64,13.64,0,0,0,523,256.89ZM173.13,142.3H279.26a13.64,13.64,0,0,0,11.81-20.46L264.54,75.89,238,29.93a13.64,13.64,0,0,0-23.62,0l-26.53,46-26.53,46a13.64,13.64,0,0,0,11.81,20.46ZM186.6,73.74l26.54-46A13.64,13.64,0,0,0,201.33,7.32H95.19A13.64,13.64,0,0,0,83.38,27.78l26.53,46,26.54,46a13.64,13.64,0,0,0,23.62,0Zm-77.71,2.34-26.53-46a13.65,13.65,0,0,0-23.62,0l-26.54,46L5.67,122A13.64,13.64,0,0,0,17.48,142.5H123.62A13.64,13.64,0,0,0,135.43,122Zm335.22,75.1a14,14,0,0,0-12.1-7H173.75a14,14,0,0,0-12.1,21L226.21,277l64.56,111.83a14,14,0,0,0,24.22,0L379.55,277l64.56-111.83A14,14,0,0,0,444.11,151.18ZM990.74,285.56a13.62,13.62,0,0,0-11.81-6.82H872.8A13.64,13.64,0,0,0,861,299.2l26.53,46,26.53,45.95a13.64,13.64,0,0,0,23.63,0l26.53-45.95,26.53-46a13.62,13.62,0,0,0,0-13.64Z" transform="translate(-3.84 -7.32)"/></svg>