<svg id="Layer_1" data-name="Layer 1" xmlns="http://www.w3.org/2000/svg" viewBox="0 0 152.34 257.31"><defs><style>.cls-1{fill:#0abab5;}</style></defs><path class="cls-1" d="M77.33,54.39v60.78a7.8,7.8,0,0,1-11.71,6.76L39.3,106.74,13,91.54A7.8,7.8,0,0,1,13,78L39.3,62.83l26.32-15.2a7.81,7.81,0,0,1,11.71,6.76Zm-72.76,22a7.77,7.77,0,0,0,7.8,0L38.69,61.15,65,46a7.82,7.82,0,0,0,0-13.53L38.69,17.24,12.37,2.05A7.81,7.81,0,0,0,.66,8.81V69.58A7.8,7.8,0,0,0,4.57,76.34ZM149.1,183a7.85,7.85,0,0,0-7.81,0L115,198.16,88.66,213.35a7.81,7.81,0,0,0,0,13.53L115,242.07l26.32,15.19A7.81,7.81,0,0,0,153,250.5V189.73A7.84,7.84,0,0,0,149.1,183ZM12.67,255.06l64-37,64-37a8,8,0,0,0,0-13.86l-64-37-64-37a8,8,0,0,0-12,6.93V248.13a8,8,0,0,0,12,6.93Z" transform="translate(-0.66 -1)"/></svg>