<svg id="Layer_1" data-name="Layer 1" xmlns="http://www.w3.org/2000/svg" viewBox="0 0 146.86 191.87"><defs><style>.cls-1{fill:#0abab5;}</style></defs><path class="cls-1" d="M102.26,130.11H49A6.84,6.84,0,0,1,43,119.84L56.35,96.75,69.67,73.67a6.86,6.86,0,0,1,11.87,0L94.86,96.75l13.33,23.09a6.85,6.85,0,0,1-5.93,10.27ZM49,132h53.31a6.84,6.84,0,0,1,5.93,10.27L94.86,165.36,81.54,188.45a6.86,6.86,0,0,1-11.87,0L56.35,165.36,43,142.28A6.85,6.85,0,0,1,49,132ZM62.3,59.87H9a6.84,6.84,0,0,1-5.93-3.43,6.84,6.84,0,0,1,0-6.85L16.38,26.51,29.71,3.43a6.84,6.84,0,0,1,11.86,0L54.9,26.51,68.23,49.59A6.86,6.86,0,0,1,62.3,59.87ZM9,61.76H62.3A6.85,6.85,0,0,1,68.23,72L54.9,95.12,41.57,118.2a6.84,6.84,0,0,1-11.86,0L16.38,95.12,3.06,72A6.86,6.86,0,0,1,9,61.76Zm133.16-1.89H88.84a6.85,6.85,0,0,1-5.93-10.28L96.24,26.51,109.56,3.43a6.85,6.85,0,0,1,11.87,0l13.32,23.08,13.33,23.08a6.86,6.86,0,0,1-5.93,10.28ZM88.84,61.76h53.31A6.85,6.85,0,0,1,148.08,72L134.75,95.12,121.43,118.2a6.85,6.85,0,0,1-11.87,0L96.24,95.12,82.91,72a6.86,6.86,0,0,1,5.93-10.28Z" transform="translate(-2.14)"/></svg>