<svg id="Layer_1" data-name="Layer 1" xmlns="http://www.w3.org/2000/svg" viewBox="0 0 190.4 336.01"><defs><style>.cls-1{fill:#fff;}.cls-2{fill:#0abab5;}</style></defs><path class="cls-1" d="M.67,112,48.21,84.51,95.76,57.06v109.8L48.21,139.41ZM47.62,27.45.07,0V109.8L47.62,82.35,95.16,54.9Zm95.17,281.11L190.33,336V226.2l-47.54,27.46L95.24,281.11ZM95.09,168.77,0,113.87v219.6l95.09-54.9,95.1-54.9Z"/><path class="cls-2" d="M95.83,73.94v76a9.76,9.76,0,0,1-14.64,8.45l-32.89-19-32.89-19a9.76,9.76,0,0,1,0-16.9l32.89-19,32.89-19a9.76,9.76,0,0,1,14.64,8.45ZM4.88,101.37a9.74,9.74,0,0,0,9.76,0l32.89-19,32.89-19a9.76,9.76,0,0,0,0-16.91l-32.89-19-32.89-19A9.76,9.76,0,0,0,0,17v76A9.75,9.75,0,0,0,4.88,101.37ZM185.52,234.64a9.74,9.74,0,0,0-9.76,0l-32.89,19-32.89,19a9.76,9.76,0,0,0,0,16.91l32.89,19,32.89,19A9.76,9.76,0,0,0,190.4,319v-76A9.75,9.75,0,0,0,185.52,234.64ZM15,324.75l80-46.21,80-46.21a10,10,0,0,0,0-17.32L95,168.8,15,122.59a10,10,0,0,0-15,8.67V316.08a10,10,0,0,0,15,8.67Z"/></svg>