<svg id="Layer_1" data-name="Layer 1" xmlns="http://www.w3.org/2000/svg" viewBox="0 0 225.71 95.83"><defs><style>.cls-1{fill:#fff;}.cls-2{fill:#0abab5;}</style></defs><path class="cls-1" d="M113.51,1.67,141,49.21l27.45,47.55H58.61L86.06,49.21ZM83.35,48.62,110.8,1.07H1L28.45,48.62,55.9,96.16Zm115.91,0L226.71,1.07H116.91l27.45,47.55,27.45,47.54Z" transform="translate(-1 -1)"/><path class="cls-2" d="M151.53,96.83h-76a9.76,9.76,0,0,1-8.45-14.64l19-32.89,19-32.89a9.76,9.76,0,0,1,16.91,0L141,49.3l19,32.89a9.76,9.76,0,0,1-8.45,14.64ZM9.43,5.88a9.74,9.74,0,0,0,0,9.76l19,32.89,19,32.89a9.76,9.76,0,0,0,16.9,0l19-32.89,19-32.89A9.76,9.76,0,0,0,93.84,1h-76A9.76,9.76,0,0,0,9.43,5.88Zm115.91,0a9.74,9.74,0,0,0,0,9.76l19,32.89,19,32.89a9.76,9.76,0,0,0,16.91,0l19-32.89,19-32.89A9.76,9.76,0,0,0,209.75,1h-76A9.75,9.75,0,0,0,125.34,5.88Z" transform="translate(-1 -1)"/></svg>